<svg width="59" height="58" viewBox="0 0 59 58" fill="none" xmlns="http://www.w3.org/2000/svg">
<path opacity="0.948" fill-rule="evenodd" clip-rule="evenodd" d="M59 0.601661C59 9.8672 59 19.1327 59 28.3983C58.4726 29.009 57.8964 29.0892 57.2715 28.6389C57.121 28.469 57.0249 28.2684 56.9834 28.0373C56.9258 19.4136 56.9065 10.7898 56.9258 2.16597C43.3665 2.16597 29.8073 2.16597 16.248 2.16597C16.248 4.29184 16.248 6.41769 16.248 8.54355C29.1928 8.52349 42.1374 8.54355 55.082 8.60372C55.2878 8.69812 55.4607 8.83851 55.6006 9.02488C55.7334 13.1106 55.791 17.2019 55.7734 21.2987C55.7542 25.2296 55.735 29.1603 55.7158 33.0912C55.6653 33.5806 55.4156 33.8814 54.9668 33.9937C39.8327 34.074 24.6985 34.074 9.56446 33.9937C9.08007 33.8459 8.83039 33.505 8.81543 32.9709C8.73861 25.1493 8.73861 17.3278 8.81543 9.50621C8.87351 9.08261 9.08478 8.78179 9.44922 8.60372C11.0236 8.54356 12.5985 8.52351 14.1738 8.54355C14.1546 5.97617 14.1738 3.40908 14.2314 0.842325C14.311 0.517911 14.4838 0.2572 14.75 0.0601689C29.3079 -0.0200563 43.8659 -0.0200563 58.4238 0.0601689C58.6758 0.183509 58.8679 0.364006 59 0.601661ZM10.9473 10.7095C25.1595 10.7095 39.3718 10.7095 53.584 10.7095C53.584 17.769 53.584 24.8284 53.584 31.8879C39.3718 31.8879 25.1595 31.8879 10.9473 31.8879C10.9473 24.8284 10.9473 17.769 10.9473 10.7095ZM32.1504 13.5975C32.5345 13.5975 32.9187 13.5975 33.3027 13.5975C33.2654 14.0854 33.3038 14.5668 33.418 15.0415C34.4317 15.238 35.1615 15.8195 35.6074 16.7863C35.2041 17.047 34.8008 17.3077 34.3975 17.5684C33.8598 16.6162 33.0724 16.2753 32.0351 16.5456C31.3637 16.9226 31.1141 17.5042 31.2861 18.2904C31.4154 18.546 31.5883 18.7666 31.8047 18.9522C32.9465 19.5381 34.0413 20.2 35.0889 20.9377C36.0466 22.3482 36.0851 23.7922 35.2041 25.2697C34.6995 25.8975 34.0657 26.2987 33.3027 26.473C33.3027 26.9944 33.3027 27.5159 33.3027 28.0373C32.9187 28.0373 32.5345 28.0373 32.1504 28.0373C32.1695 27.5543 32.1503 27.0729 32.0928 26.5933C30.3587 26.2466 29.3409 25.1636 29.0391 23.3444C29.5293 23.2065 30.0286 23.1262 30.5371 23.1037C30.9479 24.9226 31.985 25.4641 33.6484 24.7282C34.4113 23.9432 34.5458 23.0408 34.0518 22.0207C33.0042 21.2829 31.9094 20.6211 30.7676 20.0352C29.3848 18.5912 29.3848 17.1473 30.7676 15.7033C31.158 15.4192 31.5804 15.1986 32.0351 15.0415C32.1493 14.5668 32.1877 14.0854 32.1504 13.5975ZM46.9004 18.8921C48.4307 18.8255 49.1797 19.5876 49.1474 21.1784C48.6464 22.6502 47.7053 23.0713 46.3242 22.4419C45.4699 21.6844 45.297 20.7819 45.8057 19.7344C46.0971 19.3271 46.462 19.0463 46.9004 18.8921ZM15.3262 19.4937C16.8799 19.4113 17.5905 20.1735 17.458 21.78C16.9108 23 16.0465 23.341 14.8652 22.8029C13.6992 21.5042 13.8529 20.4012 15.3262 19.4937Z" fill="#FC6100"/>
<path opacity="0.971" fill-rule="evenodd" clip-rule="evenodd" d="M31.3437 10.8299C36.7452 10.8376 40.1638 13.5451 41.5995 18.9523C42.2371 23.5156 40.7391 27.0855 37.1054 29.6618C32.4826 32.0493 28.3533 31.3474 24.7177 27.556C22.5463 24.6842 21.9318 21.4753 22.8739 17.9295C24.3276 13.7722 27.1509 11.4057 31.3437 10.8299ZM32.1503 13.5975C32.1876 14.0855 32.1493 14.5668 32.0351 15.0415C31.5804 15.1987 31.1579 15.4192 30.7675 15.7033C29.3847 17.1473 29.3847 18.5913 30.7675 20.0353C31.9094 20.6212 33.0041 21.283 34.0517 22.0207C34.5457 23.0408 34.4112 23.9433 33.6484 24.7282C31.985 25.4642 30.9478 24.9227 30.537 23.1037C30.0285 23.1262 29.5292 23.2065 29.039 23.3444C29.3408 25.1637 30.3586 26.2467 32.0927 26.5933C32.1502 27.073 32.1694 27.5543 32.1503 28.0373C32.5344 28.0373 32.9186 28.0373 33.3027 28.0373C33.3027 27.5159 33.3027 26.9944 33.3027 26.473C34.0656 26.2988 34.6994 25.8976 35.204 25.2697C36.085 23.7923 36.0465 22.3483 35.0888 20.9378C34.0412 20.2 32.9465 19.5382 31.8046 18.9523C31.5882 18.7666 31.4153 18.546 31.2861 18.2905C31.114 17.5042 31.3636 16.9226 32.0351 16.5456C33.0723 16.2754 33.8597 16.6163 34.3974 17.5685C34.8007 17.3077 35.204 17.0471 35.6073 16.7863C35.1614 15.8196 34.4316 15.238 33.4179 15.0415C33.3037 14.5668 33.2653 14.0855 33.3027 13.5975C32.9186 13.5975 32.5344 13.5975 32.1503 13.5975Z" fill="#FC6100"/>
<path opacity="0.966" fill-rule="evenodd" clip-rule="evenodd" d="M15.3262 12.5145C18.0545 12.4745 20.7817 12.5145 23.5078 12.6349C19.8143 17.4203 19.4494 22.4743 22.4131 27.7967C22.8666 28.4913 23.3852 29.1331 23.9687 29.722C21.0889 29.8423 18.2081 29.8824 15.3262 29.8423C15.1925 27.8976 14.1938 26.8146 12.3301 26.5933C12.3301 22.9834 12.3301 19.3734 12.3301 15.7635C14.1895 15.5465 15.1882 14.4635 15.3262 12.5145ZM15.3262 19.4938C13.8529 20.4012 13.6992 21.5043 14.8652 22.8029C16.0465 23.341 16.9108 23 17.458 21.7801C17.5905 20.1735 16.8799 19.4113 15.3262 19.4938Z" fill="#FC6100"/>
<path opacity="0.962" fill-rule="evenodd" clip-rule="evenodd" d="M40.6777 12.5145C43.3665 12.5145 46.0554 12.5145 48.7441 12.5145C48.8689 14.43 49.8484 15.513 51.6826 15.7635C51.7402 19.3732 51.7595 22.9831 51.7402 26.5933C49.8044 26.7295 48.8058 27.8125 48.7441 29.8423C45.9014 29.8624 43.0589 29.8423 40.2168 29.7821C43.6705 25.9902 44.6116 21.5981 43.04 16.6058C42.7551 15.8502 42.4094 15.1283 42.0029 14.4398C41.5331 13.8105 41.0914 13.1686 40.6777 12.5145ZM46.9004 18.8921C46.462 19.0464 46.0971 19.3271 45.8057 19.7344C45.297 20.7819 45.4699 21.6844 46.3242 22.4419C47.7053 23.0713 48.6464 22.6502 49.1475 21.1784C49.1797 19.5876 48.4307 18.8256 46.9004 18.8921Z" fill="#FC6100"/>
<path opacity="0.936" fill-rule="evenodd" clip-rule="evenodd" d="M59 40.0705C59 41.5145 59 42.9584 59 44.4024C57.2513 48.0746 55.4843 51.7447 53.6992 55.4128C47.9772 56.3982 42.2348 57.2606 36.4717 57.9999C30.5739 57.4801 24.6777 56.9386 18.7832 56.3754C16.7577 56.0931 14.7411 55.7522 12.7334 55.3526C11.2906 56.1966 9.85019 57.059 8.41211 57.9397C7.91328 58.0782 7.47155 57.978 7.08691 57.6389C4.75026 54.3202 2.38796 51.031 0 47.7717C0 47.4508 0 47.13 0 46.8091C0.126344 46.6162 0.279991 46.4357 0.460937 46.2676C4.53255 43.901 8.60417 41.5346 12.6758 39.168C16.8791 37.4988 21.1427 37.3384 25.4668 38.6867C26.1582 38.9273 26.8496 39.168 27.541 39.4087C30.998 39.4487 34.4551 39.4889 37.9121 39.529C38.1133 39.5857 38.3054 39.6659 38.4883 39.7697C39.4258 40.6282 40.3286 41.5307 41.1963 42.4771C41.4267 42.8782 41.4267 43.2794 41.1963 43.6804C40.311 44.5657 39.3316 45.3077 38.2578 45.9066C36.4909 45.9466 34.7239 45.9868 32.957 46.0269C33.6064 46.5844 34.2209 47.1861 34.8008 47.8319C39.3333 47.9121 43.8659 47.9121 48.3984 47.8319C49.8288 45.085 51.2885 42.3574 52.7773 39.6493C54.5764 39.4564 56.3817 39.4162 58.1933 39.529C58.5083 39.6378 58.7772 39.8183 59 40.0705ZM18.5527 39.9502C21.4619 39.9056 24.266 40.4471 26.9648 41.5746C27.2722 41.6147 27.5794 41.6549 27.8867 41.695C31.0749 41.735 34.263 41.7752 37.4512 41.8153C37.8208 42.2217 38.205 42.6027 38.6035 42.9584C38.3587 43.1535 38.1283 43.3741 37.9121 43.6203C35.3001 43.6603 32.6882 43.7005 30.0762 43.7406C29.2693 43.9605 28.9812 44.5019 29.2119 45.3651C30.7714 46.9536 32.3654 48.4978 33.9941 49.9979C39.1413 50.0781 44.2884 50.0781 49.4355 49.9979C49.8433 49.7684 50.1314 49.4275 50.2998 48.975C51.5098 46.6085 52.7197 44.242 53.9297 41.8755C54.9254 41.7554 55.9241 41.7153 56.9258 41.7551C56.9449 42.4381 56.9256 43.1201 56.8681 43.8008C55.3656 47.0389 53.8484 50.2679 52.3164 53.4875C47.0396 54.3033 41.758 55.0855 36.4717 55.8339C30.3442 55.2622 24.2175 54.6807 18.0918 54.0891C16.1915 53.7417 14.2901 53.4007 12.3877 53.0663C12.161 53.0714 11.9497 53.1315 11.7539 53.2468C10.5823 53.9889 9.41081 54.7309 8.23925 55.4729C6.50033 53.0046 4.73341 50.5579 2.93848 48.1327C2.7899 47.9456 2.71308 47.7451 2.70801 47.5311C6.40544 45.3699 10.1121 43.2239 13.8281 41.0933C15.3655 40.4719 16.9404 40.0908 18.5527 39.9502Z" fill="#FC6100"/>
<path fill-rule="evenodd" clip-rule="evenodd" d="M32.065 16.0163C31.9764 16.0132 31.8985 16.0364 31.8312 16.0861C31.0046 16.374 30.5593 16.9726 30.4953 17.8821C30.5579 18.9588 31.0922 19.6215 32.0984 19.8699C33.6336 19.8487 34.7413 20.552 35.4214 21.9798C35.4956 22.1714 35.5457 22.369 35.5717 22.5727C35.5927 22.8977 35.6038 23.2233 35.6051 23.5492C35.3782 25.1114 34.5321 26.0878 33.0669 26.4786C33.0724 26.8043 33.0669 27.1299 33.0502 27.4551C32.851 28.0315 32.4891 28.1769 31.9648 27.8911C31.8904 27.8016 31.8292 27.7028 31.7811 27.5946C31.7342 27.2249 31.7175 26.8529 31.731 26.4786C30.5957 26.2058 29.7997 25.5083 29.3431 24.3862C29.2365 24.0398 29.1753 23.6853 29.1594 23.3225C29.1244 22.9537 29.2691 22.6979 29.5936 22.5553C30.0115 22.4654 30.301 22.6223 30.4619 23.0261C30.4564 23.1893 30.4619 23.352 30.4786 23.5143C30.4879 23.5463 30.5046 23.5695 30.5287 23.5841C30.6808 24.3124 31.0926 24.8006 31.7644 25.0488C31.8648 25.1108 31.9761 25.1456 32.0984 25.1534C33.2765 25.2277 34.0057 24.6697 34.2859 23.4794C34.3377 22.3674 33.8535 21.6467 32.8331 21.3172C32.7733 21.289 32.7065 21.2716 32.6327 21.2649C32.4215 21.2475 32.21 21.2417 31.9982 21.2475C30.5783 21.0147 29.6599 20.1777 29.2429 18.7365C28.9544 16.9501 29.5834 15.6539 31.1298 14.848C31.3199 14.7537 31.5203 14.7014 31.731 14.6911C31.7255 14.3305 31.731 13.9702 31.7477 13.61C31.993 13.0918 32.3548 12.9814 32.8331 13.2787C32.9066 13.3566 32.9678 13.4438 33.0168 13.5402C33.0646 13.9211 33.0813 14.3047 33.0669 14.6911C34.1766 14.9486 34.9614 15.6228 35.4214 16.7138C35.5962 17.1499 35.663 17.6033 35.6218 18.0739C35.4841 18.4977 35.2002 18.6779 34.7701 18.6145C34.5388 18.524 34.3885 18.3554 34.3193 18.1088C34.3108 17.0891 33.8488 16.4091 32.9333 16.0686C32.6461 16.0206 32.3567 16.0032 32.065 16.0163Z" fill="white"/>
<ellipse cx="16.6339" cy="21.2666" rx="1.84821" ry="1.93333" fill="white"/>
<ellipse cx="48.0535" cy="21.2666" rx="1.84821" ry="1.93333" fill="white"/>
</svg>
