<svg width="39" height="39" viewBox="0 0 39 39" fill="none" xmlns="http://www.w3.org/2000/svg">
<path d="M19.5 3C10.3875 3 3 10.4255 3 19.5848C3 27.8998 9.09375 34.7652 17.034 35.9646V23.9805H12.9517V19.621H17.034V16.7202C17.034 11.9174 19.362 9.80882 23.3333 9.80882C25.2353 9.80882 26.241 9.95054 26.7173 10.0154V13.8208H24.0082C22.3223 13.8208 21.7335 15.4273 21.7335 17.2381V19.621H26.6745L26.004 23.9805H21.7335V36C29.787 34.9016 36 27.9805 36 19.5848C36 10.4255 28.6125 3 19.5 3Z" fill="black"/>
<circle cx="19.5" cy="19.5" r="19" stroke="black"/>
</svg>
