<svg width="39" height="39" viewBox="0 0 39 39" fill="none" xmlns="http://www.w3.org/2000/svg">
<path d="M14.3283 36C14.8384 35.7748 15.1957 35.2544 15.1957 34.6487V30.6742C15.1957 30.5292 15.2071 30.3783 15.2251 30.2252C15.215 30.2282 15.2057 30.2304 15.1957 30.2326C15.1957 30.2326 13.0435 30.2326 12.613 30.2326C11.537 30.2326 10.6043 29.791 10.1739 28.9078C9.67174 27.9509 9.45652 26.3317 8.16522 25.4485C7.95 25.3013 8.09348 25.0805 8.52391 25.0805C8.95435 25.1541 9.88696 25.7429 10.4609 26.5525C11.1065 27.3621 11.7522 28.0245 12.9 28.0245C14.6842 28.0245 15.6404 27.9325 16.2158 27.616C16.8858 26.5937 17.8134 25.8165 18.7826 25.8165V25.7981C14.7164 25.6641 12.1188 24.2775 10.9092 22.1364C8.28 22.1673 5.9908 22.4345 4.68443 22.6568C4.64283 22.4161 4.60696 22.1739 4.57611 21.9303C5.86526 21.7125 8.05043 21.4541 10.5627 21.4048C10.4824 21.2017 10.4128 20.9934 10.354 20.7799C7.83522 20.6489 5.66152 20.7512 4.4807 20.8513C4.46635 20.607 4.44698 20.3633 4.44411 20.116C5.62709 20.0167 7.74196 19.9173 10.1962 20.0343C10.1395 19.6663 10.1029 19.2902 10.1029 18.8987C10.1029 17.6474 10.5333 16.3226 11.3225 15.2186C10.9638 13.9674 10.4616 11.3177 11.4659 10.3609C13.4029 10.3609 14.7659 11.3177 15.4116 11.9065C16.6304 11.3906 17.9935 11.0962 19.5 11.0962C21.0065 11.0962 22.3696 11.3906 23.5174 11.9058C24.163 11.317 25.5261 10.3602 27.463 10.3602C28.5391 11.3906 27.9652 14.0402 27.6065 15.2179C28.3957 16.3219 28.8261 17.5731 28.7543 18.8979C28.7543 19.2542 28.7221 19.5979 28.6754 19.935C31.1856 19.8084 33.3578 19.91 34.5609 20.0101C34.5595 20.2581 34.5372 20.5002 34.5243 20.7453C33.3256 20.6438 31.0988 20.5393 28.5277 20.6798C28.4638 20.9271 28.3863 21.1678 28.2945 21.4011C30.8384 21.435 33.0759 21.6874 34.4268 21.9082C34.3959 22.1526 34.36 22.3948 34.3184 22.6347C32.9468 22.4095 30.6088 22.146 27.9487 22.1327C26.7543 24.251 24.2039 25.6325 20.2174 25.7937V25.8165C22.0826 25.8165 23.8043 28.6869 23.8043 30.6742V34.6487C23.8043 35.2544 24.1616 35.7748 24.6717 36C31.2437 33.7684 36 27.4092 36 19.9284C36 10.5942 28.5987 3 19.5 3C10.4013 3 3 10.5942 3 19.9284C3 27.4092 7.7563 33.7684 14.3283 36Z" fill="black"/>
<circle cx="19.5" cy="19.5" r="19" stroke="black"/>
</svg>
