<svg width="56" height="61" viewBox="0 0 56 61" fill="none" xmlns="http://www.w3.org/2000/svg">
<path opacity="0.948" fill-rule="evenodd" clip-rule="evenodd" d="M21.269 0.0084658C27.8145 -0.0141091 34.36 0.00846581 40.9053 0.076177C42.4048 0.537412 43.4205 1.50794 43.9523 2.98776C44.1431 4.87678 44.2108 6.77269 44.1554 8.6755C49.4026 9.34178 53.0816 12.0953 55.1923 16.9363C57.2174 23.5457 55.4343 28.8498 49.8431 32.8484C48.081 33.8796 46.1851 34.489 44.1554 34.6766C44.178 42.125 44.1554 49.5732 44.0877 57.0213C43.7447 58.854 42.6839 60.0501 40.9053 60.61C28.3561 60.7003 15.807 60.7003 3.25784 60.61C1.47926 60.0501 0.418453 58.854 0.0754148 57.0213C-0.0589242 45.2318 -0.0137879 33.4501 0.210837 21.676C7.25768 14.4713 14.2772 7.2488 21.269 0.0084658ZM23.0295 2.17522C28.858 2.11118 34.6811 2.17889 40.499 2.37836C41.1664 2.63929 41.5951 3.11327 41.7855 3.80029C41.8532 5.42474 41.8758 7.04981 41.8532 8.6755C35.5337 9.50997 31.6291 13.031 30.1392 19.2384C29.3234 24.7136 31.1065 29.1148 35.4884 32.4421C37.4214 33.711 39.5429 34.4559 41.8532 34.6766C41.8758 42.0799 41.8532 49.4829 41.7855 56.8859C41.4935 57.8544 40.8389 58.3735 39.8219 58.4432C27.7646 58.5769 15.712 58.5318 3.66411 58.3078C2.99679 58.0468 2.56795 57.5729 2.3776 56.8859C2.30988 45.7814 2.28731 34.6767 2.30988 23.572C7.95266 23.5946 13.5953 23.572 19.2377 23.5042C21.2006 23.2117 22.4419 22.1057 22.9618 20.1864C23.0295 14.1829 23.0521 8.17912 23.0295 2.17522ZM20.5919 4.07114C20.7497 9.2846 20.7722 14.5209 20.6596 19.7801C20.3541 20.492 19.8349 20.966 19.1023 21.2021C14.0465 21.2924 8.99068 21.2924 3.93495 21.2021C9.56392 15.5508 15.1162 9.8404 20.5919 4.07114ZM41.7178 10.9777C47.8425 10.7192 51.7472 13.5178 53.4318 19.3739C54.3002 25.1992 52.0657 29.3296 46.7284 31.765C41.1106 33.3832 36.7093 31.7355 33.5247 26.8221C31.6072 22.7885 31.878 18.9064 34.3373 15.1758C36.2503 12.8089 38.7103 11.4094 41.7178 10.9777Z" fill="#FF6200"/>
<path opacity="0.927" fill-rule="evenodd" clip-rule="evenodd" d="M42.395 12.738C42.7589 12.7158 43.12 12.7384 43.4784 12.8057C43.7718 12.9185 43.975 13.1216 44.0878 13.4151C44.1329 15.9881 44.1781 18.5612 44.2232 21.1342C45.5323 22.2627 46.8413 23.3913 48.1504 24.5197C48.6129 25.9981 48.0938 26.5625 46.5931 26.2125C44.9959 24.9316 43.4386 23.6 41.921 22.2176C41.8307 19.2383 41.8307 16.259 41.921 13.2797C42.1074 13.1165 42.2653 12.936 42.395 12.738Z" fill="#FF6200"/>
<path opacity="0.988" fill-rule="evenodd" clip-rule="evenodd" d="M4.88301 29.2597C10.7966 29.2371 16.7101 29.2597 22.6233 29.3274C23.0318 29.5345 23.2123 29.873 23.165 30.3431C23.1897 30.7921 23.0092 31.1307 22.6233 31.3588C16.7099 31.4491 10.7965 31.4491 4.88301 31.3588C3.99115 30.66 3.99115 29.9602 4.88301 29.2597Z" fill="#FF6200"/>
<path opacity="0.933" fill-rule="evenodd" clip-rule="evenodd" d="M5.01809 34.4059C10.8414 34.3833 16.6646 34.4059 22.4876 34.4737C23.118 34.866 23.3211 35.4301 23.097 36.1664C22.9326 36.3762 22.7294 36.5341 22.4876 36.6404C16.6193 36.7307 10.7509 36.7307 4.88267 36.6404C3.95603 35.8349 4.00117 35.0901 5.01809 34.4059Z" fill="#FF6200"/>
<path opacity="0.937" fill-rule="evenodd" clip-rule="evenodd" d="M4.88293 39.6872C16.3487 39.6646 27.8145 39.6872 39.2802 39.7549C39.9309 40.1732 40.089 40.7375 39.7542 41.4477C39.5756 41.7168 39.3273 41.8748 39.0094 41.9217C27.7242 42.012 16.4389 42.012 5.15377 41.9217C4.25347 41.5872 4.00519 40.9778 4.40895 40.0935C4.56402 39.9396 4.72201 39.8042 4.88293 39.6872Z" fill="#FF6200"/>
<path opacity="0.937" fill-rule="evenodd" clip-rule="evenodd" d="M5.01847 44.8331C16.3941 44.8105 27.7696 44.8331 39.1449 44.9008C39.9401 45.3092 40.1432 45.9186 39.7543 46.729C39.632 46.8916 39.4741 47.0046 39.2803 47.0675C27.8145 47.1579 16.3489 47.1579 4.88305 47.0675C3.9546 46.2685 3.99973 45.5237 5.01847 44.8331Z" fill="#FF6200"/>
<path opacity="0.935" fill-rule="evenodd" clip-rule="evenodd" d="M4.88289 50.1149C13.5501 50.0923 22.2171 50.1149 30.884 50.1826C31.6002 50.658 31.7357 51.2674 31.2903 52.0108C31.1325 52.1576 30.952 52.2704 30.7486 52.3494C22.1719 52.4397 13.595 52.4397 5.01831 52.3494C3.98184 51.6602 3.93671 50.9154 4.88289 50.1149Z" fill="#FF6200"/>
<path opacity="0.857" fill-rule="evenodd" clip-rule="evenodd" d="M38.3324 50.1147C39.5053 49.9561 40.0244 50.4527 39.8898 51.6044C39.1676 52.6878 38.4452 52.6878 37.723 51.6044C37.6308 50.9775 37.8339 50.481 38.3324 50.1147Z" fill="#FF6200"/>
</svg>
