<svg width="48" height="52" viewBox="0 0 48 52" fill="none" xmlns="http://www.w3.org/2000/svg">
<path fill-rule="evenodd" clip-rule="evenodd" d="M28.692 3.13936C32.3274 6.28103 35.9914 9.394 39.684 12.4784C42.3661 14.7342 45.0404 17.0058 47.7069 19.2934C48.2118 20.3703 48.0644 21.3377 47.2647 22.1961C46.942 22.3356 46.6051 22.4408 46.254 22.5116C45.0755 22.5747 43.8962 22.5956 42.7163 22.5747C42.7374 30.9042 42.7163 39.2336 42.6531 47.5629C42.5862 48.0782 42.4809 48.583 42.3373 49.0774C41.6038 50.4202 40.5088 51.3245 39.0523 51.7907C36.2362 51.9732 33.4145 52.0363 30.5872 51.98C30.4819 47.0373 30.4187 42.0733 30.3976 37.088C30.159 36.6394 29.8009 36.3239 29.3237 36.1415C25.7863 36.0784 22.2486 36.0573 18.7107 36.0784C18.1048 36.3047 17.7257 36.7253 17.5736 37.3405C17.4474 42.1988 17.4053 47.0787 17.4473 51.98C14.5778 52.0364 11.714 51.9733 8.85579 51.7907C8.10416 51.5417 7.43023 51.1631 6.83426 50.6549C6.32686 50.0461 5.90575 49.394 5.57081 48.6987C5.34794 47.4068 5.26367 46.1027 5.31812 44.7864C5.31812 44.1554 5.31812 43.5244 5.31812 42.8934C5.31812 42.2624 5.31812 41.6314 5.31812 41.0003C5.31812 40.3693 5.31812 39.7383 5.31812 39.1073C5.31812 38.4763 5.31812 37.8453 5.31812 37.2142C5.31812 36.5832 5.31812 35.9522 5.31812 35.3212C5.31812 34.6902 5.31812 34.0592 5.31812 33.4282C5.31812 32.7971 5.31812 32.1661 5.31812 31.5351C5.31812 30.9041 5.31812 30.2731 5.31812 29.642C5.31812 29.011 5.31812 28.38 5.31812 27.749C5.31812 27.118 5.31812 26.487 5.31812 25.856C5.31812 25.2249 5.31812 24.5939 5.31812 23.9629C5.31812 23.5423 5.31812 23.1215 5.31812 22.7009C4.16181 22.5754 2.98263 22.5334 1.78046 22.5747C0.867739 22.3783 0.278212 21.8313 0.0116242 20.934C-0.0372714 20.356 0.0681005 19.809 0.327487 19.2934C0.842217 18.7155 1.41077 18.2107 2.03315 17.7789C3.2966 16.7273 4.56005 15.6755 5.8235 14.6239C9.57494 11.423 13.3231 8.22586 17.0682 5.03241C18.9717 3.57416 20.8247 2.03868 22.6274 0.42599C23.4425 -0.0962389 24.2847 -0.138315 25.1543 0.299787C26.3182 1.27872 27.4974 2.22525 28.692 3.13936Z" fill="#FF6200"/>
</svg>
