<svg width="64" height="52" viewBox="0 0 64 52" fill="none" xmlns="http://www.w3.org/2000/svg">
<path fill-rule="evenodd" clip-rule="evenodd" d="M55.2857 0.857655C56.0219 1.27347 56.7599 1.69013 57.5 2.10765C57.937 2.36534 58.2227 2.73439 58.3571 3.2148C58.3172 3.46978 58.2577 3.70788 58.1786 3.92908C58.8707 3.85097 59.5493 3.9343 60.2143 4.17908C61.2719 4.90248 62.3671 5.56914 63.5 6.17908C63.6936 6.36678 63.8603 6.56916 64 6.78623C64 7.02432 64 7.26244 64 7.50051C63.9003 8.66808 63.4241 9.65616 62.5714 10.4648C62.1734 10.7089 61.7449 10.8041 61.2857 10.7505C61.6786 10.5364 61.8691 10.203 61.8571 9.75051C61.7494 8.68987 61.2019 7.9518 60.2143 7.53623C59.9624 7.47851 59.7243 7.49044 59.5 7.57194C59.1787 7.5923 58.8573 7.61608 58.5357 7.64337C57.6221 7.53637 56.7054 7.48873 55.7857 7.50051C55.4921 7.49308 55.2421 7.5883 55.0357 7.78623C54.6396 8.74537 54.1516 9.65008 53.5714 10.5005C53.1454 11.0457 52.6692 11.5457 52.1429 12.0005C51.1419 12.4777 50.0942 12.8468 49 13.1077C48.3255 13.3259 47.635 13.4569 46.9286 13.5005C45.6656 13.429 44.4037 13.3337 43.1429 13.2148C42.7348 13.1867 42.5919 13.3652 42.7143 13.7505C42.8324 13.7939 42.9515 13.8297 43.0714 13.8577C43.009 13.9309 42.9256 13.9785 42.8214 14.0005C42.2136 13.6147 42.0231 13.7575 42.25 14.4291C42.4237 14.6568 42.6142 14.8711 42.8214 15.0719C42.9561 15.2444 43.0037 15.4349 42.9643 15.6434C42.6419 15.507 42.3205 15.3999 42 15.3219C42.0973 15.6502 42.1687 15.9835 42.2143 16.3219C41.8681 16.3159 41.5229 16.2802 41.1786 16.2148C41.1181 16.4354 41.1538 16.6377 41.2857 16.8219C41.169 16.8572 41.0499 16.8691 40.9286 16.8577C41.1172 17.4975 41.3672 18.1166 41.6786 18.7148C41.8173 19.1444 41.8173 19.573 41.6786 20.0005C41.5468 20.1327 41.4039 20.1564 41.25 20.0719C41.2375 20.337 41.2018 20.5989 41.1429 20.8577C41.0251 20.7757 40.9179 20.6804 40.8214 20.5719C40.8309 20.7787 40.8904 20.9692 41 21.1434C41.157 21.6144 41.2999 22.0907 41.4286 22.5719C41.0376 22.3637 40.6804 22.1018 40.3571 21.7862C40.3116 22.077 40.2521 22.3627 40.1786 22.6434C40.1091 22.5144 40.0258 22.3954 39.9286 22.2862C39.8769 22.9537 39.6508 23.5489 39.25 24.0719C39.2428 23.8434 39.1951 23.6291 39.1071 23.4291C38.9481 24.1564 38.6981 24.8469 38.3571 25.5005C38.2022 25.8104 38.0474 26.1199 37.8929 26.4291C37.8791 26.2807 37.8434 26.1379 37.7857 26.0005C37.4306 26.5457 37.0496 27.0694 36.6429 27.5719C36.2696 27.9138 36.0673 28.3424 36.0357 28.8577C35.7463 29.2299 35.4725 29.6109 35.2143 30.0005C34.7815 30.4614 34.4006 30.9614 34.0714 31.5005C33.3747 32.2685 32.7319 33.078 32.1429 33.9291C30.9434 35.3746 29.8482 36.8984 28.8571 38.5005C28.4799 39.0568 28.0871 39.6044 27.6786 40.1434C27.3948 40.4161 27.0853 40.6542 26.75 40.8577C26.7328 41.0569 26.6851 41.2474 26.6071 41.4291C26.291 41.7173 26.0171 42.0387 25.7857 42.3934C25.5985 42.4604 25.408 42.5199 25.2143 42.5719C25.1007 42.8245 25.065 43.0864 25.1071 43.3577C25.3031 44.017 25.5412 44.6599 25.8214 45.2862C26.1221 45.7287 26.5389 46.0025 27.0714 46.1077C27.8337 46.1759 28.5956 46.2474 29.3571 46.3219C30.7419 46.5876 31.5039 47.4209 31.6429 48.8219C31.5967 49.5336 31.2634 50.0574 30.6429 50.3934C30.1634 50.7121 29.6396 50.8549 29.0714 50.8219C29.6339 50.2299 29.8839 49.5274 29.8214 48.7148C29.7584 48.5289 29.6512 48.3742 29.5 48.2505C29.161 48.0779 28.8039 47.9589 28.4286 47.8934C27.5052 47.7239 26.5766 47.6287 25.6429 47.6077C25.1361 47.8429 24.6719 48.1405 24.25 48.5005C24.1589 48.6589 24.0875 48.8256 24.0357 49.0005C24.0001 49.4046 23.9881 49.8094 24 50.2148C22.9704 49.942 22.5299 49.2753 22.6786 48.2148C22.7841 47.9341 22.8674 47.6484 22.9286 47.3577C23.1159 47.075 23.3301 46.8131 23.5714 46.5719C23.7931 46.4262 24.0311 46.3072 24.2857 46.2148C24.0011 45.8944 23.7035 45.5849 23.3929 45.2862C23.2361 45.0681 23.1171 44.8299 23.0357 44.5719C23.0866 43.7412 23.1224 42.9079 23.1429 42.0719C22.9981 42.0835 22.8552 42.0716 22.7143 42.0362C22.6606 41.9883 22.6367 41.9288 22.6429 41.8577C22.683 41.4228 22.7425 40.9942 22.8214 40.5719C22.4549 40.4743 22.0859 40.3791 21.7143 40.2862C21.6106 40.3891 21.5391 40.5081 21.5 40.6434C21.1638 41.3742 20.7114 42.029 20.1429 42.6077C19.9095 42.7027 19.6833 42.7384 19.4643 42.7148C18.9934 43.5382 18.5052 44.3477 18 45.1434C17.4994 45.8711 16.928 46.5497 16.2857 47.1791C16.1451 47.2894 15.9904 47.3727 15.8214 47.4291C15.8542 46.8532 15.9018 46.2817 15.9643 45.7148C15.2175 46.7478 14.527 47.8192 13.8929 48.9291C13.7434 49.1563 13.5768 49.3706 13.3929 49.5719C13.4178 48.9063 13.4178 48.2397 13.3929 47.5719C13.3179 47.4993 13.2346 47.4874 13.1429 47.5362C12.9129 47.7899 12.7106 48.0637 12.5357 48.3577C12.2608 49.0743 11.9274 49.7647 11.5357 50.4291C11.2086 50.8248 10.7919 51.0629 10.2857 51.1434C10.2857 50.9291 10.2857 50.7148 10.2857 50.5005C10.3674 49.9155 10.4984 49.3441 10.6786 48.7862C10.1871 49.3114 9.58 49.5972 8.85714 49.6434C8.8895 49.3439 8.97279 49.0582 9.10714 48.7862C9.41707 48.4041 9.69086 47.9994 9.92857 47.5719C10.5531 46.4491 11.0889 45.2824 11.5357 44.0719C12.1149 42.3977 12.6387 40.7073 13.1071 39.0005C13.4152 38.1345 13.8081 37.3131 14.2857 36.5362C14.138 36.5374 14.019 36.6089 13.9286 36.7505C13.8254 36.8063 13.7302 36.7944 13.6429 36.7148C14.1955 35.6269 14.7312 34.5316 15.25 33.4291C15.3058 33.3259 15.2939 33.2307 15.2143 33.1434C15.1464 33.2024 15.0749 33.2142 15 33.1791C15.1852 32.9815 15.3281 32.7553 15.4286 32.5005C15.2869 32.4144 15.144 32.4144 15 32.5005C14.9303 32.2864 14.9421 32.0722 15.0357 31.8577C15.2441 31.5601 15.4346 31.2506 15.6071 30.9291C15.6892 30.7224 15.7249 30.5082 15.7143 30.2862C15.5459 30.2979 15.3793 30.286 15.2143 30.2505C16.0059 29.156 16.6607 27.9774 17.1786 26.7148C17.2707 26.5511 17.3898 26.4082 17.5357 26.2862C17.6338 26.1294 17.6576 25.9627 17.6071 25.7862C17.0004 26.4172 16.2742 26.6434 15.4286 26.4648C15.3438 26.392 15.2724 26.3087 15.2143 26.2148C15.3523 26.0799 15.4832 25.937 15.6071 25.7862C15.6563 25.7268 15.6444 25.6792 15.5714 25.6434C14.7339 26.1277 13.8411 26.4611 12.8929 26.6434C12.8334 26.6196 12.7738 26.5957 12.7143 26.5719C12.9895 26.3563 13.2276 26.1063 13.4286 25.8219C12.7834 26.2707 12.0929 26.6754 11.3571 27.0362C10.8017 27.2572 10.2303 27.4119 9.64286 27.5005C9.48321 27.5216 9.34036 27.4977 9.21429 27.4291C9.45843 27.3521 9.56557 27.1854 9.53572 26.9291C8.776 27.4936 7.93079 27.8507 7 28.0005C6.64361 28.0067 6.31027 27.9233 6 27.7505C6.40762 27.5642 6.71715 27.3142 6.92857 27.0005C6.26469 27.3765 5.5504 27.6027 4.78571 27.6791C3.19136 27.7909 1.59611 27.7909 0 27.6791C1.73618 27.2161 3.25999 26.3828 4.57143 25.1791C3.81601 25.2817 3.05411 25.3412 2.28571 25.3577C1.87525 25.3644 1.47049 25.3287 1.07143 25.2505C3.80069 24.4818 6.18164 23.1247 8.21429 21.1791C9.40679 19.9627 10.6211 18.7722 11.8571 17.6077C13.2723 16.5547 14.7246 15.5547 16.2143 14.6077C17.5797 13.5397 18.8892 12.4088 20.1429 11.2148C20.4617 10.9317 20.7713 10.6341 21.0714 10.3219C20.6992 10.4365 20.3421 10.5912 20 10.7862C19.8105 10.8702 19.6201 10.9297 19.4286 10.9648C20.4166 10.0719 21.4048 9.17908 22.3929 8.28623C22.9618 6.95705 23.6761 5.71895 24.5357 4.57194C25.2468 3.71717 26.1396 3.15765 27.2143 2.89337C27.9804 2.86439 28.7185 3.00725 29.4286 3.32194C30.5108 3.89275 31.5941 4.45227 32.6786 5.00051C32.6966 4.80763 32.6966 4.61716 32.6786 4.42908C33.1239 4.61737 33.5644 4.81975 34 5.03623C34.1757 5.14036 34.3305 5.27131 34.4643 5.42908C34.4824 5.2362 34.4824 5.04573 34.4643 4.85766C34.7732 5.01801 35.0946 5.14896 35.4286 5.25051C35.5792 5.33202 35.7101 5.43916 35.8214 5.57194C35.8016 5.31198 35.8016 5.05008 35.8214 4.78623C36.0809 5.11721 36.3666 5.42673 36.6786 5.7148C36.8631 5.96461 37.0297 6.22652 37.1786 6.50051C37.1865 6.17172 37.2579 5.8622 37.3929 5.57194C37.4694 6.16458 37.5171 6.75983 37.5357 7.35766C37.7605 7.14566 37.951 6.90753 38.1071 6.64337C38.184 6.90068 38.2436 7.16258 38.2857 7.42908C38.3475 7.50644 38.4189 7.5183 38.5 7.4648C38.5519 7.36487 38.5876 7.25773 38.6071 7.14337C38.9286 7.75051 39.3929 8.2148 40 8.53623C42.2988 9.32058 44.6559 9.6063 47.0714 9.39337C48.0728 9.24394 48.918 8.80351 49.6071 8.07194C50.1312 7.33644 50.286 6.52693 50.0714 5.64337C49.7769 4.6149 49.646 3.56728 49.6786 2.50051C49.7339 2.24703 49.8291 2.00894 49.9643 1.78623C50.4963 1.1107 51.151 0.598799 51.9286 0.250512C52.6311 -0.0577011 53.3454 -0.0815106 54.0714 0.179083C54.5012 0.369929 54.906 0.59612 55.2857 0.857655Z" fill="#FF6200"/>
<path fill-rule="evenodd" clip-rule="evenodd" d="M54.8894 2.08547C54.8894 2.00342 54.935 1.9624 55.0263 1.9624C55.7539 2.41052 56.4841 2.86178 57.2166 3.31616C56.9537 3.45658 56.6799 3.47709 56.3953 3.37769C55.9112 2.92186 55.4093 2.49112 54.8894 2.08547Z" fill="#FF6200"/>
</svg>
