<svg width="59" height="58" viewBox="0 0 59 58" fill="none" xmlns="http://www.w3.org/2000/svg">
<path fill-rule="evenodd" clip-rule="evenodd" d="M23.1211 9.06598C23.1172 9.1868 23.1459 9.29308 23.2072 9.38488C23.2989 9.68132 23.3563 9.985 23.3794 10.296C23.3911 10.6407 23.4342 10.9748 23.5086 11.2983C23.5157 11.6174 23.5301 11.9363 23.5516 12.255C23.4985 12.724 23.4698 13.1948 23.4655 13.6672C23.4047 13.901 23.3616 14.1439 23.3363 14.3962C22.5354 18.4853 20.3684 21.4541 16.8354 23.3026C13.0512 25.0611 9.34868 24.8941 5.72772 22.8014C2.63885 20.7988 0.758865 17.906 0.0877998 14.1228C0.0836667 13.8553 0.0549505 13.5971 0.0016941 13.3483C0.0016941 13.2117 0.0016941 13.075 0.0016941 12.9383C-0.0052374 12.2694 0.0090992 11.6013 0.044747 10.9338C0.565514 6.83104 2.50289 3.72555 5.85688 1.6174C9.4651 -0.39249 13.1389 -0.529161 16.8784 1.20738C20.0428 2.86266 22.1237 5.48219 23.1211 9.06598Z" fill="#FF6200"/>
<path fill-rule="evenodd" clip-rule="evenodd" d="M11.3245 6.28691C11.2103 6.28281 11.1098 6.31315 11.0231 6.37802C9.95754 6.75409 9.38347 7.53617 9.30098 8.72421C9.38166 10.1308 10.0705 10.9964 11.3675 11.321C13.3467 11.2932 14.7746 12.2119 15.6513 14.0772C15.7469 14.3274 15.8115 14.5855 15.845 14.8516C15.8721 15.2762 15.8864 15.7015 15.8881 16.1272C15.5956 18.1679 14.5049 19.4435 12.616 19.954C12.6232 20.3795 12.616 20.8047 12.5945 21.2296C12.3377 21.9826 11.8713 22.1724 11.1953 21.7991C11.0994 21.6823 11.0205 21.5532 10.9585 21.4119C10.8981 20.9289 10.8766 20.4429 10.8939 19.954C9.4304 19.5976 8.40428 18.6865 7.81566 17.2206C7.67823 16.7682 7.59932 16.305 7.57887 15.8311C7.5337 15.3493 7.7203 15.0152 8.13855 14.8289C8.67736 14.7114 9.0505 14.9164 9.25793 15.4439C9.25078 15.657 9.25797 15.8696 9.27945 16.0817C9.29142 16.1234 9.31295 16.1538 9.34403 16.1728C9.54005 17.1242 10.071 17.762 10.937 18.0862C11.0664 18.1671 11.2099 18.2127 11.3675 18.2229C12.8863 18.3199 13.8263 17.5909 14.1875 16.0361C14.2543 14.5835 13.63 13.642 12.3147 13.2116C12.2375 13.1747 12.1514 13.152 12.0564 13.1432C11.7841 13.1205 11.5114 13.1129 11.2384 13.1205C9.40797 12.8163 8.22401 11.723 7.6865 9.84036C7.31456 7.50674 8.12542 5.81352 10.119 4.76074C10.364 4.63751 10.6223 4.56918 10.8939 4.55574C10.8868 4.08472 10.8939 3.61398 10.9155 3.14347C11.2317 2.46658 11.6981 2.3223 12.3147 2.71067C12.4094 2.81245 12.4883 2.92634 12.5515 3.05235C12.6131 3.54993 12.6346 4.05106 12.616 4.55574C14.0466 4.89213 15.0583 5.77289 15.6513 7.19805C15.8766 7.76774 15.9627 8.35998 15.9096 8.97478C15.7321 9.52838 15.3662 9.76378 14.8117 9.68091C14.5135 9.56274 14.3197 9.34256 14.2305 9.02033C14.2196 7.68833 13.624 6.79997 12.4438 6.35524C12.0737 6.29256 11.7005 6.26978 11.3245 6.28691Z" fill="white"/>
<path fill-rule="evenodd" clip-rule="evenodd" d="M10.937 18.0864C11.0947 18.0965 11.2382 18.1421 11.3675 18.223C11.2099 18.2129 11.0664 18.1673 10.937 18.0864Z" fill="#FF6200"/>
<path fill-rule="evenodd" clip-rule="evenodd" d="M13.305 32.2091C13.2183 32.2738 13.1178 32.3043 13.0037 32.3002C13.0904 32.2355 13.1909 32.205 13.305 32.2091Z" fill="#FF6200"/>
<path fill-rule="evenodd" clip-rule="evenodd" d="M10.5926 32.8012C10.5059 32.8659 10.4054 32.8964 10.2913 32.8923C10.378 32.8276 10.4785 32.7971 10.5926 32.8012Z" fill="#FF6200"/>
<path fill-rule="evenodd" clip-rule="evenodd" d="M16.4479 33.2568C16.3611 33.3215 16.2607 33.352 16.1465 33.3479C16.2332 33.2833 16.3337 33.2527 16.4479 33.2568Z" fill="#FF6200"/>
<path fill-rule="evenodd" clip-rule="evenodd" d="M8.26788 35.079C7.97839 35.1705 7.67702 35.2161 7.36377 35.2157C7.65498 35.1364 7.95635 35.0908 8.26788 35.079Z" fill="#FF6200"/>
<path fill-rule="evenodd" clip-rule="evenodd" d="M5.08203 35.3525C5.23853 35.3803 5.3964 35.3958 5.55561 35.3981C5.39244 35.4619 5.23461 35.4468 5.08203 35.3525Z" fill="#FF6200"/>
<path fill-rule="evenodd" clip-rule="evenodd" d="M23.7237 40.1359C23.7237 46.0734 23.7237 52.0113 23.7237 57.9487C20.71 57.9487 17.6963 57.9487 14.6826 57.9487C14.6826 52.0113 14.6826 46.0734 14.6826 40.1359C17.6963 40.1359 20.71 40.1359 23.7237 40.1359Z" fill="#FF6200"/>
<path fill-rule="evenodd" clip-rule="evenodd" d="M14.6397 40.0903C17.675 40.0753 20.703 40.0903 23.7238 40.1359C20.7101 40.1359 17.6964 40.1359 14.6827 40.1359C14.6827 46.0734 14.6827 52.0113 14.6827 57.9487C14.6397 52.0035 14.6253 46.0506 14.6397 40.0903Z" fill="#FF6200"/>
<path fill-rule="evenodd" clip-rule="evenodd" d="M0.216797 46.3315C3.25921 46.3315 6.30159 46.3315 9.344 46.3315C9.344 50.2189 9.344 54.1068 9.344 57.9942C6.30159 57.9942 3.25921 57.9942 0.216797 57.9942C0.216797 54.1068 0.216797 50.2189 0.216797 46.3315Z" fill="#FF6200"/>
<path fill-rule="evenodd" clip-rule="evenodd" d="M0.26001 46.3773C3.27371 46.3773 6.28741 46.3773 9.30111 46.3773C9.30111 50.2346 9.30111 54.0915 9.30111 57.9488C6.28741 57.9488 3.27371 57.9488 0.26001 57.9488C0.26001 54.0915 0.26001 50.2346 0.26001 46.3773Z" fill="#FF6200"/>
<path fill-rule="evenodd" clip-rule="evenodd" d="M14.6397 40.0905C14.6254 46.0507 14.6397 52.0036 14.6828 57.9488C17.6965 57.9488 20.7102 57.9488 23.7239 57.9488C20.6887 57.9944 17.6463 58.0094 14.5967 57.9944C14.5823 52.0187 14.5967 46.0507 14.6397 40.0905Z" fill="#FF6200"/>
<path fill-rule="evenodd" clip-rule="evenodd" d="M18.0377 33.2569C17.9082 33.2528 17.7944 33.2833 17.696 33.348C14.7486 34.0774 11.7709 34.6546 8.76276 35.0792C8.40953 35.091 8.06782 35.1366 7.73763 35.2159C7.05509 35.2824 6.37167 35.3434 5.68738 35.3981C5.50686 35.3958 5.32785 35.3803 5.15041 35.3525C4.59049 35.0377 4.43589 34.5972 4.68666 34.0314C4.79513 33.8542 4.94968 33.7252 5.15041 33.6441C7.12441 33.4296 9.09333 33.179 11.0571 32.8924C11.1865 32.8965 11.3004 32.866 11.3988 32.8013C12.3088 32.6346 13.22 32.4674 14.1325 32.3002C14.2619 32.3043 14.3758 32.2738 14.4742 32.2091C25.2652 29.7628 34.9308 25.2754 43.4706 18.747C46.0075 16.7974 48.3995 14.6942 50.6465 12.4373C50.685 12.4244 50.7177 12.4016 50.7441 12.369C50.2638 12.3314 49.7917 12.339 49.3285 12.3918C48.5313 12.4158 47.7337 12.4234 46.9365 12.4145C46.3283 12.0932 46.1574 11.63 46.4239 11.025C46.5479 10.8942 46.6861 10.7803 46.8389 10.6834C47.5359 10.6199 48.236 10.5744 48.9379 10.5467C50.1754 10.5344 51.4124 10.4965 52.6479 10.4328C53.3455 10.3219 53.8253 10.5649 54.088 11.1617C54.1505 12.8699 54.2076 14.5783 54.2588 16.2869C54.2505 16.5526 54.2427 16.8184 54.2344 17.0841C54.0104 17.5794 53.612 17.7844 53.0384 17.6992C52.7402 17.5879 52.5205 17.3981 52.3794 17.1297C52.2857 15.9629 52.2203 14.7936 52.1842 13.6218C44.0549 21.749 34.3977 27.77 23.2122 31.6852C21.4963 32.2524 19.7715 32.7763 18.0377 33.2569Z" fill="#FF6200"/>
<path fill-rule="evenodd" clip-rule="evenodd" d="M58.9453 57.9487C58.9453 47.1667 58.9453 36.3852 58.9453 25.6032C55.5282 25.6032 52.1111 25.6032 48.694 25.6032C48.694 36.3852 48.694 47.1667 48.694 57.9487C48.6452 47.1594 48.6291 36.3624 48.6452 25.5576C52.095 25.5576 55.5443 25.5576 58.9941 25.5576C59.0102 36.3624 58.9941 47.1594 58.9453 57.9487Z" fill="#FF6200"/>
<path fill-rule="evenodd" clip-rule="evenodd" d="M58.9451 57.9486C55.528 57.9486 52.1109 57.9486 48.6938 57.9486C48.6938 47.1666 48.6938 36.385 48.6938 25.603C52.1109 25.603 55.528 25.603 58.9451 25.603C58.9451 36.385 58.9451 47.1666 58.9451 57.9486Z" fill="#FF6200"/>
<path fill-rule="evenodd" clip-rule="evenodd" d="M42.6408 57.9487C42.6569 49.8318 42.6408 41.7227 42.592 33.6212C39.1749 33.6212 35.7578 33.6212 32.3407 33.6212C32.3407 41.7154 32.3407 49.809 32.3407 57.9032C32.3407 57.9182 32.3407 57.9337 32.3407 57.9487C32.2919 49.8318 32.2758 41.7076 32.2919 33.5757C35.7578 33.5757 39.2237 33.5757 42.6896 33.5757C42.7057 41.7076 42.6896 49.8318 42.6408 57.9487Z" fill="#FF6200"/>
<path fill-rule="evenodd" clip-rule="evenodd" d="M42.5918 33.6213C42.5918 41.7154 42.5918 49.8091 42.5918 57.9032C39.1747 57.9032 35.7577 57.9032 32.3406 57.9032C32.3406 49.8091 32.3406 41.7154 32.3406 33.6213C35.7577 33.6213 39.1747 33.6213 42.5918 33.6213Z" fill="#FF6200"/>
<path fill-rule="evenodd" clip-rule="evenodd" d="M42.5918 33.6213C42.6407 41.7227 42.6568 49.8319 42.6407 57.9488C39.2075 57.9488 35.7738 57.9488 32.3406 57.9488C32.3406 57.9337 32.3406 57.9182 32.3406 57.9032C35.7577 57.9032 39.1747 57.9032 42.5918 57.9032C42.5918 49.8091 42.5918 41.7154 42.5918 33.6213Z" fill="#FF6200"/>
</svg>
