<svg width="39" height="39" viewBox="0 0 39 39" fill="none" xmlns="http://www.w3.org/2000/svg">
<path d="M9 14.2861H11.0952C12.2529 14.2861 13.1905 15.2238 13.1905 16.3814V30.0004H11.0952C9.93762 30.0004 9 29.0628 9 27.9052V14.2861Z" fill="black"/>
<path d="M11.0827 12.1905H11.0596C9.80876 12.1905 9 11.2581 9 10.0942C9 8.90514 9.8339 8 11.1068 8C12.3817 8 13.1664 8.90514 13.1905 10.0942C13.1905 11.2581 12.3817 12.1905 11.0827 12.1905Z" fill="black"/>
<path d="M30.9997 20.2858C30.9997 17.2331 28.7284 14.5334 25.6841 14.3039C23.5511 14.1416 21.6444 15.1462 20.5235 16.7418V16.3814C20.5235 15.2238 19.5859 14.2861 18.4282 14.2861H16.333V27.9052C16.333 29.0628 17.2706 30.0004 18.4282 30.0004H20.5235V21.7976C20.5235 20.0952 21.7984 18.5709 23.4977 18.4818C25.3101 18.3865 26.8092 19.828 26.8092 21.6195V27.9052C26.8092 29.0628 27.7468 30.0004 28.9044 30.0004H30.9997V20.2858Z" fill="black"/>
<circle cx="19.5" cy="19.5" r="19" stroke="black"/>
</svg>
