<svg width="60" height="59" viewBox="0 0 60 59" fill="none" xmlns="http://www.w3.org/2000/svg">
<path opacity="0.965" fill-rule="evenodd" clip-rule="evenodd" d="M26.7623 0.0785024C36.6567 -0.562771 44.9632 2.7248 51.682 9.94121C58.3908 18.013 60.4948 27.1743 57.9942 37.4253C57.2956 39.7643 56.3971 42.0218 55.2984 44.1977C55.3148 44.4116 55.3806 44.6089 55.4956 44.7895C55.9121 45.1182 56.3284 45.447 56.7449 45.7757C54.4976 46.5466 52.2183 47.2259 49.9067 47.814C49.863 45.4454 49.9067 43.0783 50.0382 40.7129C50.4815 41.1189 50.9636 41.2285 51.4848 41.0416C51.8521 40.6365 52.137 40.1762 52.3396 39.6608C56.0128 30.4834 54.917 21.9357 49.052 14.0178C42.5058 6.37033 34.2431 3.41152 24.2637 5.14136C21.3947 5.77585 18.7209 6.8717 16.242 8.42893C16.1105 8.5166 15.979 8.5166 15.8475 8.42893C15.0585 7.20158 14.2695 5.97421 13.4805 4.74685C17.5438 2.12868 21.9709 0.572572 26.7623 0.0785024Z" fill="#FF6200"/>
<path opacity="0.961" fill-rule="evenodd" clip-rule="evenodd" d="M8.74643 11.2562C8.87794 11.2562 9.00944 11.2562 9.14094 11.2562C9.18473 13.6248 9.14094 15.9918 9.00944 18.3573C8.58737 17.9994 8.10519 17.8897 7.56291 18.0286C7.19561 18.4337 6.91069 18.894 6.70814 19.4093C3.15568 28.245 4.0762 36.5735 9.4697 44.3949C10.0085 45.077 10.5783 45.7345 11.1792 46.3674C11.2822 46.6066 11.2164 46.7819 10.982 46.8934C9.25903 45.9834 7.46186 45.2821 5.59037 44.7894C5.2129 44.8712 4.84031 44.9589 4.47259 45.0524C0.237307 38.1142 -0.990048 30.6623 0.790513 22.6969C1.46607 19.9686 2.45234 17.3604 3.74933 14.8725C3.73288 14.6585 3.66712 14.4613 3.55207 14.2807C3.1131 13.9509 2.69667 13.6002 2.3028 13.2287C4.47082 12.5888 6.6187 11.9313 8.74643 11.2562Z" fill="#FF6200"/>
<path opacity="0.979" fill-rule="evenodd" clip-rule="evenodd" d="M24.0007 11.6508C27.6839 11.607 31.3659 11.6508 35.047 11.7823C34.2098 13.1679 33.3988 14.5706 32.6142 15.9904C32.5149 16.359 32.5587 16.7097 32.7457 17.0424C36.2827 18.1093 39.0882 20.1695 41.1619 23.223C42.2101 24.9207 42.8676 26.7617 43.1344 28.7461C43.2221 33.7432 43.2221 38.7403 43.1344 43.7374C38.4438 41.7131 33.8193 41.8664 29.2609 44.1977C26.2321 44.2077 23.2075 44.2953 20.1872 44.4607C18.5434 44.8772 17.5133 45.9072 17.0968 47.551C17.0428 48.2878 17.021 48.9893 17.0311 49.6551C15.644 48.9835 14.2414 48.3478 12.823 47.7483C13.6736 46.766 14.5722 45.8236 15.5188 44.921C15.6322 44.7123 15.7199 44.4931 15.7818 44.2635C15.8256 39.0471 15.8695 33.8309 15.9133 28.6146C17.0424 22.7951 20.4396 19.0033 26.1048 17.2396C26.4591 16.8908 26.5686 16.4743 26.4335 15.9904C25.5889 14.5562 24.7779 13.1097 24.0007 11.6508ZM24.2637 20.3299C24.3789 20.3127 24.4667 20.3565 24.5267 20.4614C24.7729 20.9759 25.0359 21.4799 25.3158 21.9737C24.8335 22.2587 24.3515 22.5435 23.8692 22.8285C23.4451 22.4261 23.0944 21.9658 22.8172 21.4477C22.8513 21.2819 22.939 21.1504 23.0802 21.0532C23.4831 20.8087 23.8777 20.5677 24.2637 20.3299ZM28.4718 22.171C29.1731 22.171 29.8746 22.171 30.5759 22.171C30.5759 22.9162 30.5759 23.6613 30.5759 24.4065C33.1182 24.5818 34.4772 25.9408 34.6525 28.4831C33.995 28.4831 33.3374 28.4831 32.6799 28.4831C32.6361 27.1243 31.9347 26.4229 30.5759 26.3791C30.5759 27.8256 30.5759 29.2721 30.5759 30.7187C33.1176 30.8933 34.4765 32.2523 34.6525 34.7953C34.4765 37.3383 33.1176 38.6972 30.5759 38.8718C30.5759 39.6171 30.5759 40.3622 30.5759 41.1074C29.8746 41.1074 29.1731 41.1074 28.4718 41.1074C28.4718 40.3622 28.4718 39.6171 28.4718 38.8718C25.9295 38.6965 24.5705 37.3376 24.3952 34.7953C25.0528 34.7953 25.7103 34.7953 26.3678 34.7953C26.4116 36.1541 27.113 36.8555 28.4718 36.8993C28.4718 35.4528 28.4718 34.0062 28.4718 32.5597C25.9301 32.3851 24.5712 31.0261 24.3952 28.4831C24.5712 25.9401 25.9301 24.5812 28.4718 24.4065C28.4718 23.6613 28.4718 22.9162 28.4718 22.171ZM20.8447 22.96C21.4063 23.302 21.8884 23.7403 22.2912 24.275C20.5404 26.4159 19.7953 28.8705 20.0557 31.6392C19.3543 31.6392 18.6529 31.6392 17.9516 31.6392C17.8425 28.3723 18.8068 25.4792 20.8447 22.96Z" fill="#FF6200"/>
<path opacity="0.938" fill-rule="evenodd" clip-rule="evenodd" d="M27.6833 26.379C27.9464 26.379 28.2094 26.379 28.4725 26.379C28.4725 27.7821 28.4725 29.185 28.4725 30.588C26.7334 30.404 26.0538 29.4394 26.4337 27.6943C26.6997 27.0998 27.1163 26.6614 27.6833 26.379Z" fill="#FF6200"/>
<path opacity="0.937" fill-rule="evenodd" clip-rule="evenodd" d="M30.5759 32.6913C31.9344 32.7344 32.6358 33.4359 32.6804 34.7958C32.6358 36.1557 31.9344 36.8571 30.5759 36.9003C30.5759 35.4972 30.5759 34.0943 30.5759 32.6913Z" fill="#FF6200"/>
<path opacity="0.988" fill-rule="evenodd" clip-rule="evenodd" d="M35.8362 44.2635C38.4102 44.1627 40.843 44.6887 43.1346 45.8415C43.2003 50.2248 43.2223 54.6082 43.2003 58.9918C35.573 59.0138 27.9459 58.9918 20.3188 58.9261C18.9811 58.7432 17.7098 58.3486 16.5053 57.7426C12.3109 55.6603 8.14663 53.5563 4.0125 51.4304C3.26262 50.5829 3.02153 49.5966 3.28923 48.4716C3.90778 47.0647 4.98171 46.5605 6.51105 46.9593C10.6597 48.8802 14.824 50.7651 19.0038 52.6139C22.8609 52.6797 26.7184 52.7017 30.5761 52.6797C30.5761 51.9784 30.5761 51.277 30.5761 50.5756C27.1567 50.5976 23.7377 50.5756 20.3188 50.5099C19.1377 49.9217 18.7212 48.9792 19.0696 47.6826C19.3106 47.0908 19.7271 46.6744 20.3188 46.4333C23.2557 46.3895 26.1927 46.3456 29.1295 46.3018C30.1802 45.8643 31.2323 45.4259 32.2856 44.9868C33.4686 44.6495 34.6521 44.4083 35.8362 44.2635Z" fill="#FF6200"/>
<path opacity="0.978" fill-rule="evenodd" clip-rule="evenodd" d="M45.3042 46.3674C46.1809 46.3674 47.0575 46.3674 47.9343 46.3674C47.9124 47.4204 47.9343 48.4724 48 49.5235C48.1915 49.8509 48.4764 50.0702 48.8548 50.181C51.174 49.5027 53.4971 48.8452 55.8244 48.2085C55.8244 51.8028 55.8244 55.3973 55.8244 58.9917C52.3176 58.9917 48.811 58.9917 45.3042 58.9917C45.3042 54.7836 45.3042 50.5755 45.3042 46.3674ZM48.8548 52.8111C51.1252 52.7791 51.8922 53.8311 51.1561 55.9671C50.3341 56.8234 49.3916 56.9767 48.3288 56.4274C47.4725 55.6054 47.3192 54.6629 47.8685 53.6001C48.1465 53.2554 48.4753 52.9924 48.8548 52.8111Z" fill="#FF6200"/>
</svg>
