<svg width="53" height="59" viewBox="0 0 53 59" fill="none" xmlns="http://www.w3.org/2000/svg">
<path opacity="0.988" fill-rule="evenodd" clip-rule="evenodd" d="M26.0307 0C31.5604 0.244995 35.5491 2.81804 37.997 7.71912C39.9585 12.9171 39.1231 17.6067 35.491 21.7878C31.4581 25.5527 26.8011 26.5695 21.5199 24.8381C16.2736 22.5473 13.517 18.5424 13.25 12.8237C13.4703 7.58877 15.8929 3.74991 20.5175 1.30727C22.2876 0.514591 24.1254 0.0788346 26.0307 0Z" fill="#FF6200"/>
<path opacity="0.989" fill-rule="evenodd" clip-rule="evenodd" d="M21.838 29.562C24.9463 29.5386 28.0543 29.562 31.162 29.6323C39.3795 30.7167 45.6161 35.2855 49.8715 43.3385C51.8534 47.5018 52.8962 51.9533 53 56.6933C52.9599 57.6995 52.5101 58.2852 51.6505 58.4505C34.8834 58.5443 18.1166 58.5443 1.34954 58.4505C0.505659 58.3504 0.0558218 57.8114 0 56.8339C0.376226 46.1004 4.58841 38.0642 12.6366 32.725C15.5432 30.9973 18.6104 29.943 21.838 29.562Z" fill="#FF6200"/>
</svg>
