<svg width="51" height="51" viewBox="0 0 51 51" fill="none" xmlns="http://www.w3.org/2000/svg">
<path d="M25.5 0C11.4133 0 0 11.4133 0 25.5C0 39.5867 11.4133 51 25.5 51C39.5867 51 51 39.5867 51 25.5C51 11.4133 39.5867 0 25.5 0ZM25.5 9.87097C30.4972 9.87097 34.5484 13.9222 34.5484 18.9194C34.5484 23.9165 30.4972 27.9677 25.5 27.9677C20.5028 27.9677 16.4516 23.9165 16.4516 18.9194C16.4516 13.9222 20.5028 9.87097 25.5 9.87097ZM25.5 45.2419C19.4643 45.2419 14.0558 42.5069 10.4365 38.2294C12.3696 34.5895 16.1534 32.0806 20.5645 32.0806C20.8113 32.0806 21.0581 32.1218 21.2946 32.1938C22.6313 32.6256 24.0296 32.9032 25.5 32.9032C26.9704 32.9032 28.379 32.6256 29.7054 32.1938C29.9419 32.1218 30.1887 32.0806 30.4355 32.0806C34.8466 32.0806 38.6304 34.5895 40.5635 38.2294C36.9442 42.5069 31.5357 45.2419 25.5 45.2419Z" fill="white"/>
</svg>
