<svg width="61" height="41" viewBox="0 0 61 41" fill="none" xmlns="http://www.w3.org/2000/svg">
<path opacity="0.987" fill-rule="evenodd" clip-rule="evenodd" d="M19.0646 0.0169198C28.0212 -0.296481 34.5804 3.75211 38.9513 11.479C37.8708 11.5829 36.7565 11.458 35.6712 11.479C35.5254 11.6248 35.5158 11.616 35.37 11.7618C35.2867 17.5926 35.2867 23.4233 35.37 29.2542C35.5158 29.4 35.5254 29.3738 35.6712 29.5196C36.7565 29.5406 37.8708 29.4156 38.9513 29.5196C35.3994 35.9008 30.0897 39.946 22.813 40.9366C15.9034 41.4109 10.0101 39.2243 5.13321 34.3769C0.394193 28.5931 -1.0635 22.0542 0.760121 14.7605C3.17294 6.91941 8.39983 2.15074 16.4408 0.454229C17.3331 0.305507 18.2078 0.159733 19.0646 0.0169198ZM19.6894 10.5123C20.3974 10.5123 21.1054 10.5123 21.8134 10.5123C21.8134 11.3036 21.8134 12.095 21.8134 12.8863C22.9527 12.919 23.994 13.2522 24.9371 13.8859C24.6541 14.5891 24.3834 15.297 24.1249 16.01C22.7116 15.0699 21.1913 14.8407 19.5644 15.3228C18.8632 15.8445 18.6342 16.5317 18.8772 17.3844C19.1062 17.7801 19.4186 18.0924 19.8143 18.3214C21.3679 18.9522 22.8256 19.7434 24.1874 20.6954C25.6389 22.4017 25.7847 24.2134 24.6247 26.1305C23.8767 27.109 22.898 27.6921 21.6885 27.8798C21.6885 28.7544 21.6885 29.629 21.6885 30.5036C20.9804 30.5036 20.2725 30.5036 19.5644 30.5036C19.6033 29.6802 19.5617 28.8681 19.4395 28.0672C18.1138 27.9725 16.906 27.5559 15.8161 26.8177C16.0959 26.1233 16.3874 25.4361 16.6907 24.7561C18.2348 25.7979 19.9008 26.0686 21.6885 25.5683C22.7193 24.8375 22.9483 23.9004 22.3757 22.757C22.1002 22.4396 21.7878 22.1689 21.4386 21.9449C20.1475 21.3905 18.8981 20.7658 17.6902 20.0707C15.9145 18.481 15.6438 16.6693 16.8781 14.6356C17.6415 13.7855 18.5786 13.2442 19.6894 13.0113C19.6894 12.1782 19.6894 11.3454 19.6894 10.5123Z" fill="#FF6200"/>
<path opacity="0.976" fill-rule="evenodd" clip-rule="evenodd" d="M50.6759 11.137C53.8723 14.1458 57.0168 17.2277 60.1093 20.383C60.1927 20.4663 60.1927 20.5495 60.1093 20.6329C57.0257 23.7374 53.9228 26.8194 50.8009 29.8789C50.7069 29.4176 50.6027 28.9595 50.4885 28.5045C50.4261 28.2754 50.2802 28.1296 50.0512 28.0671C45.72 28.0047 41.3885 27.9838 37.0569 28.0047C37.0569 23.0069 37.0569 18.009 37.0569 13.0112C41.3885 13.0321 45.72 13.0112 50.0512 12.9487C50.2802 12.8863 50.4261 12.7405 50.4885 12.5114C50.6431 12.0666 50.7056 11.6084 50.6759 11.137Z" fill="#FF6200"/>
</svg>
