<svg width="18" height="14" viewBox="0 0 18 14" fill="none" xmlns="http://www.w3.org/2000/svg">
<g clip-path="url(#clip0_764_580)">
<path d="M1.09141 0.139607C0.798908 -0.0846119 0.374221 -0.0326588 0.143596 0.251716C-0.0870294 0.536091 -0.0335919 0.948982 0.258908 1.1732L16.9089 13.8607C17.2014 14.0849 17.6261 14.033 17.8567 13.7486C18.0873 13.4642 18.0339 13.0513 17.7414 12.8271L14.7827 10.574C15.8964 9.46383 16.6502 8.21968 17.0298 7.33648C17.1227 7.12047 17.1227 6.87984 17.0298 6.66383C16.6108 5.68765 15.7305 4.26578 14.4142 3.07906C13.0923 1.8814 11.2727 0.875154 9.00016 0.875154C7.08203 0.875154 5.48453 1.59429 4.2386 2.53765L1.09141 0.139607ZM5.33828 3.37437C6.35641 2.67164 7.57985 2.18765 9.00016 2.18765C10.8339 2.18765 12.3414 2.99703 13.4973 4.03883C14.5802 5.01773 15.3283 6.17984 15.7108 7.00015C15.3564 7.76578 14.6814 8.82672 13.7167 9.75914L12.2036 8.60523C12.4595 8.12398 12.603 7.57984 12.603 7.00015C12.603 5.06695 10.9914 3.50015 9.00297 3.50015C8.09735 3.50015 7.26766 3.82554 6.63485 4.36148L5.33828 3.37437ZM11.1067 7.77125L8.81453 6.02398C8.93266 5.79156 9.00016 5.52633 9.00016 5.25015C9.00016 5.09976 8.98047 4.95211 8.94391 4.81265C8.9636 4.81265 8.98047 4.81265 9.00016 4.81265C10.2433 4.81265 11.2502 5.79156 11.2502 7.00015C11.2502 7.27086 11.1995 7.53062 11.1067 7.77125ZM11.3711 11.3341C10.6539 11.6322 9.8636 11.8127 9.00016 11.8127C7.16641 11.8127 5.65891 11.0033 4.50297 9.96148C3.42016 8.98258 2.67203 7.82047 2.28953 7.00015C2.52297 6.49703 2.89422 5.86539 3.39766 5.22828L2.33735 4.41617C1.6961 5.22828 1.23766 6.03765 0.970471 6.66383C0.877658 6.87984 0.877658 7.12047 0.970471 7.33648C1.38953 8.31265 2.26985 9.73453 3.5861 10.9212C4.90797 12.1189 6.72766 13.1252 9.00016 13.1252C10.3445 13.1252 11.5286 12.7724 12.5495 12.2365L11.3711 11.3341ZM5.40016 7.00015C5.40016 8.93336 7.01172 10.5002 9.00016 10.5002C9.37422 10.5002 9.73422 10.4455 10.0745 10.3416L8.49391 9.13297C7.83297 8.98531 7.28172 8.55328 6.9836 7.97633L5.40578 6.76773C5.40016 6.84429 5.39735 6.92086 5.39735 7.00015H5.40016Z" fill="white"/>
</g>
<defs>
<clipPath id="clip0_764_580">
<rect width="18" height="14" fill="white"/>
</clipPath>
</defs>
</svg>
